<svg xmlns="http://www.w3.org/2000/svg" viewBox="0 0 1024 1024" width="1024" height="1024" role="img" aria-label="Audio Harbor app icon">
<defs>
<linearGradient id="plinth3" x1="0.15" y1="0" x2="0.85" y2="1">
<stop offset="0" stop-color="#241E17"/><stop offset="0.45" stop-color="#14110E"/>
<stop offset="1" stop-color="#080706"/></linearGradient>
<linearGradient id="rim3" x1="0" y1="0" x2="0.9" y2="1">
<stop offset="0" stop-color="#F7E3B4" stop-opacity="0.95"/>
<stop offset="0.35" stop-color="#C79447" stop-opacity="0.5"/>
<stop offset="0.7" stop-color="#7E5522" stop-opacity="0.35"/>
<stop offset="1" stop-color="#F0C877" stop-opacity="0.6"/></linearGradient>
<linearGradient id="brass3" x1="0.1" y1="0" x2="0.9" y2="1">
<stop offset="0" stop-color="#F7E1AC"/><stop offset="0.35" stop-color="#D3A257"/>
<stop offset="0.62" stop-color="#9C6C2C"/><stop offset="1" stop-color="#E3C489"/></linearGradient>
<linearGradient id="brassU3" x1="120" y1="90" x2="900" y2="960" gradientUnits="userSpaceOnUse">
<stop offset="0" stop-color="#F7E1AC"/><stop offset="0.35" stop-color="#D3A257"/>
<stop offset="0.62" stop-color="#9C6C2C"/><stop offset="1" stop-color="#E3C489"/></linearGradient>
<linearGradient id="brassEdge3" x1="0" y1="0" x2="0" y2="1">
<stop offset="0" stop-color="#FBEDC6"/><stop offset="1" stop-color="#8A5C24"/></linearGradient>
<radialGradient id="glow3" cx="0.5" cy="0.5" r="0.5">
<stop offset="0" stop-color="#FFB23C" stop-opacity="0.55"/>
<stop offset="1" stop-color="#FFB23C" stop-opacity="0"/></radialGradient>
<radialGradient id="vign3" cx="0.42" cy="0.34" r="0.78">
<stop offset="0" stop-color="#FFFFFF" stop-opacity="0.055"/>
<stop offset="0.62" stop-color="#000000" stop-opacity="0"/>
<stop offset="1" stop-color="#000000" stop-opacity="0.5"/></radialGradient>
</defs>
<path d="M512 0C245 0 106 0 53 53C0 106 0 245 0 512C0 779 0 918 53 971C106 1024 245 1024 512 1024C779 1024 918 1024 971 971C1024 918 1024 779 1024 512C1024 245 1024 106 971 53C918 0 779 0 512 0Z" fill="url(#plinth3)"/>

<ellipse cx="470" cy="392" rx="450" ry="340" fill="url(#glow3)" opacity="0.5"/>
<circle cx="340" cy="396" r="208" fill="#100E0C"/>
<circle cx="340" cy="396" r="208" fill="none" stroke="url(#brassEdge3)" stroke-width="7.4"/>
<circle cx="340" cy="396" r="178" fill="#3A2E22"/>
<circle cx="340" cy="396" r="178" fill="none" stroke="#0C0B09" stroke-width="3" stroke-opacity="0.6"/>
<circle cx="340" cy="396" r="155" fill="#2A211A"/>
<circle cx="297" cy="278" r="36" fill="#0C0B09"/><circle cx="463" cy="418" r="36" fill="#0C0B09"/><circle cx="260" cy="492" r="36" fill="#0C0B09"/>
<circle cx="340" cy="396" r="62" fill="url(#brass3)"/>
<circle cx="340" cy="396" r="21" fill="#0C0B09"/>
<path d="M191 396 A149 149 0 0 1 340 247" fill="none" stroke="#F3D9A0" stroke-width="5" stroke-opacity="0.28" stroke-linecap="round"/>
<circle cx="748" cy="474" r="134" fill="#100E0C"/>
<circle cx="748" cy="474" r="134" fill="none" stroke="url(#brassEdge3)" stroke-width="4.8"/>
<circle cx="748" cy="474" r="115" fill="#3A2E22"/>
<circle cx="748" cy="474" r="115" fill="none" stroke="#0C0B09" stroke-width="3" stroke-opacity="0.6"/>
<circle cx="748" cy="474" r="100" fill="#2A211A"/>
<circle cx="720" cy="398" r="23" fill="#0C0B09"/><circle cx="827" cy="488" r="23" fill="#0C0B09"/><circle cx="696" cy="536" r="23" fill="#0C0B09"/>
<circle cx="748" cy="474" r="40" fill="url(#brass3)"/>
<circle cx="748" cy="474" r="14" fill="#0C0B09"/>
<path d="M652 474 A96 96 0 0 1 748 378" fill="none" stroke="#F3D9A0" stroke-width="5" stroke-opacity="0.28" stroke-linecap="round"/>
<path d="M340 604 C400 690 470 706 556 700 L620 694 C688 686 726 654 748 610" fill="none" stroke="#241C15" stroke-width="26" stroke-linecap="round"/>
<path d="M340 604 C400 690 470 706 556 700 L620 694 C688 686 726 654 748 610" fill="none" stroke="#C79447" stroke-width="3" stroke-opacity="0.28"/>
<rect x="498" y="642" width="168" height="92" rx="16" fill="url(#brass3)"/>
<rect x="516" y="660" width="56" height="56" rx="8" fill="#171410"/>
<rect x="592" y="660" width="56" height="56" rx="8" fill="#171410"/>
<circle cx="544" cy="688" r="8" fill="#FFB23C" fill-opacity="0.9"/>
<text x="512" y="933" text-anchor="middle" font-family="Nunito Sans, Avenir Next, Helvetica Neue, Arial, sans-serif" font-size="56" font-weight="700" letter-spacing="11" fill="#000000" fill-opacity="0.75">AUDIO HARBOR</text><text x="512" y="930" text-anchor="middle" font-family="Nunito Sans, Avenir Next, Helvetica Neue, Arial, sans-serif" font-size="56" font-weight="700" letter-spacing="11" fill="#A2977F">AUDIO HARBOR</text>
<path d="M512 0C245 0 106 0 53 53C0 106 0 245 0 512C0 779 0 918 53 971C106 1024 245 1024 512 1024C779 1024 918 1024 971 971C1024 918 1024 779 1024 512C1024 245 1024 106 971 53C918 0 779 0 512 0Z" fill="url(#vign3)"/>
<path d="M512 0C245 0 106 0 53 53C0 106 0 245 0 512C0 779 0 918 53 971C106 1024 245 1024 512 1024C779 1024 918 1024 971 971C1024 918 1024 779 1024 512C1024 245 1024 106 971 53C918 0 779 0 512 0Z" fill="none" stroke="url(#rim3)" stroke-width="5"/>
</svg>